<svg width="108" height="108" viewBox="0 0 108 108" fill="none" xmlns="http://www.w3.org/2000/svg">
<circle cx="54" cy="54" r="54" fill="black"/>
<path d="M81.64 84.712H59.368C58.6 84.712 58.04 84.536 57.688 84.184C57.336 83.832 57.16 83.272 57.16 82.504V51.4C57.16 50.984 57.208 50.632 57.304 50.344C57.432 50.056 57.608 49.816 57.832 49.624L64.024 44.392C64.184 44.264 64.392 44.168 64.648 44.104C64.936 44.008 65.24 43.96 65.56 43.96H87.832C88.6 43.96 89.16 44.136 89.512 44.488C89.864 44.84 90.04 45.4 90.04 46.168V51.784C90.04 52.2 89.976 52.552 89.848 52.84C89.752 53.128 89.592 53.368 89.368 53.56L85.24 56.968C85.56 57.128 85.784 57.368 85.912 57.688C86.072 58.008 86.152 58.424 86.152 58.936V64.072C86.152 64.488 86.088 64.84 85.96 65.128C85.864 65.416 85.704 65.656 85.48 65.848L81.208 69.448H87.832C88.6 69.448 89.16 69.624 89.512 69.976C89.864 70.328 90.04 70.888 90.04 71.656V77.272C90.04 77.688 89.976 78.04 89.848 78.328C89.752 78.616 89.592 78.856 89.368 79.048L83.128 84.232C83 84.36 82.792 84.472 82.504 84.568C82.248 84.664 81.96 84.712 81.64 84.712ZM87.832 79C88.44 79 88.872 78.872 89.128 78.616C89.416 78.328 89.56 77.88 89.56 77.272V71.656C89.56 71.048 89.416 70.616 89.128 70.36C88.872 70.072 88.44 69.928 87.832 69.928H74.584V65.8H83.944C84.552 65.8 84.984 65.672 85.24 65.416C85.528 65.128 85.672 64.68 85.672 64.072V58.936C85.672 58.328 85.528 57.896 85.24 57.64C84.984 57.352 84.552 57.208 83.944 57.208H74.584V53.512H87.832C88.44 53.512 88.872 53.384 89.128 53.128C89.416 52.84 89.56 52.392 89.56 51.784V46.168C89.56 45.56 89.416 45.128 89.128 44.872C88.872 44.584 88.44 44.44 87.832 44.44H65.56C64.952 44.44 64.504 44.584 64.216 44.872C63.96 45.128 63.832 45.56 63.832 46.168V77.272C63.832 77.88 63.96 78.328 64.216 78.616C64.504 78.872 64.952 79 65.56 79H87.832ZM85.24 74.2V74.68H69.064V48.76H85.24V49.24H69.544V61.288H81.352V61.768H69.544V74.2H85.24Z" fill="#CCCCCC"/>
<path d="M39.96 32.24H29.496V46.112H39.96C41.944 46.112 43.272 45.632 43.944 44.672C44.616 43.712 44.952 42.352 44.952 40.592V37.232C44.952 35.76 44.536 34.56 43.704 33.632C42.904 32.704 41.656 32.24 39.96 32.24ZM34.68 36.08H38.28C39.112 36.08 39.672 36.304 39.96 36.752C40.248 37.168 40.392 37.696 40.392 38.336V39.968C40.392 40.608 40.248 41.152 39.96 41.6C39.672 42.016 39.112 42.224 38.28 42.224H34.68V36.08ZM29.496 57.68H29.016V31.76H39.96C41.816 31.76 43.192 32.288 44.088 33.344C44.984 34.368 45.432 35.664 45.432 37.232V40.544C45.432 42.016 45.24 43.232 44.856 44.192C44.472 45.12 43.704 45.76 42.552 46.112H43.08C45.032 46.112 46.488 46.56 47.448 47.456C48.408 48.32 48.888 49.584 48.888 51.248V57.68H48.408V51.248C48.408 49.68 47.976 48.512 47.112 47.744C46.248 46.944 44.904 46.544 43.08 46.544H29.496V57.68ZM32.952 62C33.56 62 33.992 61.872 34.248 61.616C34.536 61.328 34.68 60.88 34.68 60.272V50.864H41.4C42.072 50.864 42.536 51.04 42.792 51.392C43.08 51.712 43.224 52.224 43.224 52.928V60.272C43.224 60.88 43.352 61.328 43.608 61.616C43.896 61.872 44.344 62 44.952 62H52.392C53 62 53.432 61.872 53.688 61.616C53.976 61.328 54.12 60.88 54.12 60.272V50.096C54.12 48.08 53.576 46.464 52.488 45.248C51.432 44.032 50.04 43.328 48.312 43.136C49.304 42.72 49.992 42.048 50.376 41.12C50.792 40.16 51 39.008 51 37.664V35.456C51 33.088 50.312 31.168 48.936 29.696C47.592 28.192 45.128 27.44 41.544 27.44H25.56C24.952 27.44 24.504 27.584 24.216 27.872C23.96 28.128 23.832 28.56 23.832 29.168V60.272C23.832 60.88 23.96 61.328 24.216 61.616C24.504 61.872 24.952 62 25.56 62H32.952ZM34.488 62.048L28.248 67.232C28.12 67.36 27.912 67.472 27.624 67.568C27.368 67.664 27.08 67.712 26.76 67.712H19.368C18.6 67.712 18.04 67.536 17.688 67.184C17.336 66.832 17.16 66.272 17.16 65.504V34.4C17.16 33.984 17.208 33.632 17.304 33.344C17.432 33.056 17.608 32.816 17.832 32.624L24.024 27.392C24.184 27.264 24.392 27.168 24.648 27.104C24.936 27.008 25.24 26.96 25.56 26.96H41.544C45.352 26.96 47.96 27.76 49.368 29.36C50.776 30.928 51.48 32.96 51.48 35.456V37.664C51.48 38.848 51.336 39.888 51.048 40.784C50.76 41.648 50.296 42.352 49.656 42.896H49.608C51.112 43.312 52.312 44.144 53.208 45.392C54.136 46.64 54.6 48.208 54.6 50.096V60.272C54.6 60.688 54.536 61.04 54.408 61.328C54.312 61.616 54.152 61.856 53.928 62.048L47.688 67.232C47.56 67.36 47.352 67.472 47.064 67.568C46.808 67.664 46.52 67.712 46.2 67.712H38.76C37.992 67.712 37.432 67.536 37.08 67.184C36.728 66.832 36.552 66.272 36.552 65.504V58.16C36.552 57.648 36.456 57.264 36.264 57.008C36.072 56.72 35.72 56.576 35.208 56.576H35.16V60.272C35.16 60.688 35.096 61.04 34.968 61.328C34.872 61.616 34.712 61.856 34.488 62.048Z" fill="#CCCCCC"/>
</svg>
